<svg width="24" height="24" viewBox="0 0 24 24" fill="none" xmlns="http://www.w3.org/2000/svg">
<path d="M12 3C15.8389 3 18.9777 5.90222 19.2021 9.56395C19.7187 9.70107 20.1744 9.99864 20.4992 10.4109C20.824 10.8231 21 11.3273 21 11.8457V13.7383C21 14.2596 20.8221 14.7663 20.4941 15.1797C20.1661 15.5931 19.7063 15.8901 19.186 16.0246L19.2004 15.9572C18.7316 18.2262 16.5661 20.1052 14.2276 20.4265C14.068 20.6565 13.8365 20.831 13.567 20.9243C13.2975 21.0176 13.0042 21.0248 12.7301 20.945C12.4561 20.8651 12.2156 20.7023 12.0442 20.4805C11.8727 20.2586 11.7791 19.9895 11.7773 19.7124C11.7754 19.4353 11.8653 19.165 12.0338 18.941C12.2023 18.7171 12.4406 18.5513 12.7135 18.468C12.9865 18.3847 13.2799 18.3882 13.5506 18.4781C13.8213 18.5681 14.0552 18.7396 14.2178 18.9676C15.7547 18.6755 17.2015 17.4539 17.658 15.9971C17.1607 15.8467 16.726 15.5464 16.4173 15.1401C16.1087 14.7338 15.9422 14.2427 15.9421 13.7383V11.8457C15.9422 11.3322 16.1148 10.8326 16.4339 10.4223C16.753 10.0121 17.2013 9.71338 17.7111 9.57135C17.4939 6.70246 15.0198 4.44 12 4.44C8.98017 4.44 6.50649 6.70246 6.28845 9.57135C6.79844 9.71318 7.24689 10.0118 7.5661 10.4221C7.8853 10.8324 8.05791 11.3321 8.05785 11.8457V13.7383C8.05785 14.3657 7.80037 14.9675 7.34204 15.4111C6.88372 15.8548 6.2621 16.104 5.61393 16.104H5.44392C4.79575 16.104 4.17413 15.8548 3.71581 15.4111C3.25748 14.9675 3 14.3657 3 13.7383V11.8457C3 10.7554 3.76165 9.83796 4.79787 9.56354C5.02229 5.90222 8.16113 3 12 3Z" fill="white"/>
</svg>
