<svg width="24" height="24" viewBox="0 0 24 24" fill="none" xmlns="http://www.w3.org/2000/svg">
<path d="M10.5437 5.47145L4.36393 11.6513C3.88129 12.1339 3.88129 12.9163 4.36393 13.3989L10.5437 19.5787C11.0264 20.0614 11.8088 20.0614 12.2914 19.5787C12.774 19.0961 12.774 18.3137 12.2914 17.8311L8.22135 13.761H20.0693C20.7522 13.761 21.3053 13.2079 21.3053 12.5251C21.3053 11.8422 20.7522 11.2891 20.0693 11.2891H8.22135L12.2914 7.21904C12.5324 6.97803 12.6535 6.66161 12.6535 6.3452C12.6535 6.02878 12.533 5.71239 12.2914 5.47136C11.8088 4.98871 11.0264 4.98871 10.5437 5.47136V5.47145Z" fill="white"/>
</svg>
